<?xml version="1.0" standalone="no"?>
<!DOCTYPE svg PUBLIC "-//W3C//DTD SVG 20010904//EN"
 "http://www.w3.org/TR/2001/REC-SVG-20010904/DTD/svg10.dtd">
<svg version="1.0" xmlns="http://www.w3.org/2000/svg"
 width="1408.000000pt" height="1408.000000pt" viewBox="0 0 1408.000000 1408.000000"
 preserveAspectRatio="xMidYMid meet">
<metadata>
Created by potrace 1.11, written by Peter Selinger 2001-2013
</metadata>
<g transform="translate(0.000000,1408.000000) scale(0.100000,-0.100000)"
fill="#000000" stroke="none">
<path d="M516 11918 c176 -1093 1566 -9650 1569 -9665 l5 -23 1334 0 1334 0
11 63 c6 34 173 1054 371 2267 199 1213 363 2207 366 2209 2 2 4 -1 4 -7 0
-12 726 -4457 736 -4505 l6 -27 1334 0 c734 0 1334 1 1334 3 1 1 357 2198 793
4882 l792 4880 -1209 3 c-665 1 -1210 1 -1212 0 -1 -2 -144 -1243 -318 -2758
-174 -1515 -318 -2759 -320 -2765 -3 -12 54 -382 -431 2770 -228 1485 -418
2712 -421 2728 l-6 27 -1084 0 -1084 0 -5 -22 c-2 -13 -194 -1254 -425 -2758
-231 -1504 -422 -2739 -424 -2745 -3 -6 -5 -5 -5 1 -1 7 -143 1245 -316 2752
-173 1506 -315 2747 -315 2756 0 15 -97 16 -1214 16 l-1213 0 13 -82z"/>
<path d="M12282 4596 c-255 -49 -469 -163 -657 -351 -171 -170 -272 -347 -332
-580 -34 -134 -43 -393 -19 -531 56 -322 225 -593 501 -803 96 -73 289 -166
405 -196 421 -108 864 -7 1165 266 279 252 411 526 431 893 11 194 -32 422
-111 594 -109 234 -325 460 -559 583 -108 56 -171 81 -286 110 -110 27 -424
36 -538 15z"/>
</g>
</svg>
